<svg width="20" height="20" viewBox="0 0 20 20" fill="none" xmlns="http://www.w3.org/2000/svg">
<rect width="20" height="20" rx="6" fill="#1A98E6"/>
<path fill-rule="evenodd" clip-rule="evenodd" d="M10.5495 5.73083V6.7254H12.8038V7.65274H7.3547V6.7254H9.60897V5.73083H10.5495ZM8.09874 12.0877V13.3419H13.0003V14.2693H8.09874H7.33153H7.1582V12.0877H8.09874ZM10.0793 7.81735C9.05574 7.81735 8.22639 8.63539 8.22639 9.64453C8.22639 10.6537 9.05608 11.4717 10.0796 11.4717C11.1031 11.4717 11.9328 10.6537 11.9328 9.64453C11.9324 8.63539 11.1028 7.81735 10.0793 7.81735ZM11.0104 9.64453C11.0104 10.1516 10.5935 10.5626 10.0793 10.5626C9.56498 10.5626 9.14812 10.1516 9.14812 9.64453C9.14812 9.13748 9.56498 8.72647 10.0793 8.72647C10.5935 8.72614 11.0104 9.13748 11.0104 9.64453ZM9.4145 12.3358C9.4145 11.9738 9.71211 11.6804 10.0793 11.6804C10.4464 11.6804 10.744 11.9738 10.744 12.3358C10.744 12.6978 10.4464 12.9912 10.0793 12.9912C9.71211 12.9912 9.4145 12.6978 9.4145 12.3358Z" fill="white"/>
</svg>
