<svg width="14" height="14" viewBox="0 0 14 14" fill="none" xmlns="http://www.w3.org/2000/svg">
<path d="M9.0349 11.569C9.0349 12.7458 8.08925 13.6998 6.92273 13.6998C5.7562 13.6998 4.81055 12.7458 4.81055 11.569C4.81055 10.3921 5.7562 11.0684 6.92273 11.0684C8.08925 11.0684 9.0349 10.3921 9.0349 11.569Z" fill="#777777"/>
<path d="M8.25432 1.56473C8.25432 2.26278 7.69338 2.28135 7.00143 2.28135C6.30947 2.28135 5.74854 2.26278 5.74854 1.56473C5.74854 0.866669 6.30947 0.300781 7.00143 0.300781C7.69338 0.300781 8.25432 0.866669 8.25432 1.56473Z" fill="#777777"/>
<path d="M3.38604 5.84542C3.41217 3.78495 4.89837 2.20312 6.90472 2.20312C8.96453 2.20312 10.4379 3.87153 10.4777 6.03194C10.4989 7.17898 10.7297 8.30637 11.4832 9.5475C11.6558 9.83181 11.6619 10.1995 11.5261 10.4998C11.3931 10.794 11.1573 10.9628 10.8782 10.9628H3.11042C2.81687 10.9628 2.56909 10.7871 2.42656 10.4841C2.28114 10.175 2.27912 9.79221 2.4499 9.48919C3.17775 8.19779 3.37099 7.03274 3.38604 5.84542Z" stroke="#777777"/>
</svg>
