<svg width="20" height="20" viewBox="0 0 20 20" fill="none" xmlns="http://www.w3.org/2000/svg">
<rect width="20" height="20" rx="6" fill="#EA4C3A"/>
<path d="M14.3401 11.2373C14.0909 10.9684 13.5373 10.8339 12.79 10.8339C12.3471 10.8339 11.8765 10.8877 11.3229 10.9684C10.7366 10.435 10.2497 9.80687 9.88353 9.11234C10.1603 8.30538 10.3541 7.52532 10.3541 6.93354C10.3541 6.47627 10.188 5.75 9.52368 5.75C9.32992 5.75 9.16384 5.85759 9.05312 6.01899C8.77631 6.50316 8.88703 7.57911 9.41296 8.70886C9.02876 9.78831 8.56622 10.84 8.02894 11.856C6.56188 12.4478 5.59307 13.0934 5.51003 13.6044C5.45467 13.8465 5.62075 14.25 6.20204 14.25C7.06013 14.25 8.00126 13.0396 8.72095 11.8022C9.55164 11.5246 10.4031 11.3089 11.2675 11.1566C12.3194 12.0443 13.2329 12.1788 13.6757 12.1788C14.5615 12.1788 14.6446 11.5601 14.3401 11.2373ZM9.19152 6.09968C9.41296 5.7769 9.91121 5.88449 9.91121 6.53006C9.91121 6.96044 9.77281 7.65981 9.496 8.46677C8.99776 7.33703 8.99776 6.44937 9.19152 6.09968ZM5.67611 13.6313C5.75915 13.2009 6.58956 12.6092 7.89054 12.0981C7.17085 13.2816 6.45116 14.0348 6.00828 14.0348C5.73147 14.0348 5.64843 13.7927 5.67611 13.6313ZM11.1291 10.9953C10.3491 11.1365 9.58126 11.3342 8.83167 11.587C9.24134 10.8686 9.57517 10.1114 9.82817 9.32753C10.1922 9.93168 10.6287 10.4917 11.1291 10.9953ZM11.489 11.1028C12.3748 10.9684 13.1221 10.9953 13.4543 11.049C14.257 11.2104 13.9802 12.1519 13.0945 11.9367C12.4578 11.8022 11.9319 11.4525 11.489 11.1028Z" fill="white"/>
<path d="M14.3401 11.2373C14.0909 10.9684 13.5373 10.8339 12.79 10.8339C12.3471 10.8339 11.8765 10.8877 11.3229 10.9684C10.7366 10.435 10.2497 9.80687 9.88353 9.11234C10.1603 8.30538 10.3541 7.52532 10.3541 6.93354C10.3541 6.47627 10.188 5.75 9.52368 5.75C9.32992 5.75 9.16384 5.85759 9.05312 6.01899C8.77631 6.50316 8.88703 7.57911 9.41296 8.70886C9.02876 9.78831 8.56622 10.84 8.02894 11.856C6.56188 12.4478 5.59307 13.0934 5.51003 13.6044C5.45467 13.8465 5.62075 14.25 6.20204 14.25C7.06013 14.25 8.00126 13.0396 8.72095 11.8022C9.55164 11.5246 10.4031 11.3089 11.2675 11.1566C12.3194 12.0443 13.2329 12.1788 13.6757 12.1788C14.5615 12.1788 14.6446 11.5601 14.3401 11.2373ZM9.19152 6.09968C9.41296 5.7769 9.91121 5.88449 9.91121 6.53006C9.91121 6.96044 9.77281 7.65981 9.496 8.46677C8.99776 7.33703 8.99776 6.44937 9.19152 6.09968ZM5.67611 13.6313C5.75915 13.2009 6.58956 12.6092 7.89054 12.0981C7.17085 13.2816 6.45116 14.0348 6.00828 14.0348C5.73147 14.0348 5.64843 13.7927 5.67611 13.6313ZM11.1291 10.9953C10.3491 11.1365 9.58126 11.3342 8.83167 11.587C9.24134 10.8686 9.57517 10.1114 9.82817 9.32753C10.1922 9.93168 10.6287 10.4917 11.1291 10.9953ZM11.489 11.1028C12.3748 10.9684 13.1221 10.9953 13.4543 11.049C14.257 11.2104 13.9802 12.1519 13.0945 11.9367C12.4578 11.8022 11.9319 11.4525 11.489 11.1028Z" fill="white" stroke="white" stroke-width="0.24"/>
<path d="M14.3401 11.2373C14.0909 10.9684 13.5373 10.8339 12.79 10.8339C12.3471 10.8339 11.8765 10.8877 11.3229 10.9684C10.7366 10.435 10.2497 9.80687 9.88353 9.11234C10.1603 8.30538 10.3541 7.52532 10.3541 6.93354C10.3541 6.47627 10.188 5.75 9.52368 5.75C9.32992 5.75 9.16384 5.85759 9.05312 6.01899C8.77631 6.50316 8.88703 7.57911 9.41296 8.70886C9.02876 9.78831 8.56622 10.84 8.02894 11.856C6.56188 12.4478 5.59307 13.0934 5.51003 13.6044C5.45467 13.8465 5.62075 14.25 6.20204 14.25C7.06013 14.25 8.00126 13.0396 8.72095 11.8022C9.55164 11.5246 10.4031 11.3089 11.2675 11.1566C12.3194 12.0443 13.2329 12.1788 13.6757 12.1788C14.5615 12.1788 14.6446 11.5601 14.3401 11.2373ZM9.19152 6.09968C9.41296 5.7769 9.91121 5.88449 9.91121 6.53006C9.91121 6.96044 9.77281 7.65981 9.496 8.46677C8.99776 7.33703 8.99776 6.44937 9.19152 6.09968ZM5.67611 13.6313C5.75915 13.2009 6.58956 12.6092 7.89054 12.0981C7.17085 13.2816 6.45116 14.0348 6.00828 14.0348C5.73147 14.0348 5.64843 13.7927 5.67611 13.6313ZM11.1291 10.9953C10.3491 11.1365 9.58126 11.3342 8.83167 11.587C9.24134 10.8686 9.57517 10.1114 9.82817 9.32753C10.1922 9.93168 10.6287 10.4917 11.1291 10.9953ZM11.489 11.1028C12.3748 10.9684 13.1221 10.9953 13.4543 11.049C14.257 11.2104 13.9802 12.1519 13.0945 11.9367C12.4578 11.8022 11.9319 11.4525 11.489 11.1028Z" fill="white" stroke="white" stroke-width="0.24"/>
</svg>
