<svg width="14" height="14" viewBox="0 0 14 14" fill="none" xmlns="http://www.w3.org/2000/svg">
    <path d="M9.03469 11.5689C9.03469 12.7457 8.08908 13.6996 6.92262 13.6996C5.75615 13.6996 4.81055 12.7457 4.81055 11.5689C4.81055 10.3922 5.75615 11.0684 6.92262 11.0684C8.08908 11.0684 9.03469 10.3922 9.03469 11.5689Z" fill="#6449FC"/>
    <path d="M8.25371 1.56466C8.25371 2.26268 7.6928 2.28125 7.00088 2.28125C6.30896 2.28125 5.74805 2.26268 5.74805 1.56466C5.74805 0.86664 6.30896 0.300781 7.00088 0.300781C7.6928 0.300781 8.25371 0.86664 8.25371 1.56466Z" fill="#6449FC"/>
    <path d="M3.38591 5.84521C3.41204 3.78486 4.89815 2.20312 6.90438 2.20312C8.96407 2.20312 10.4374 3.87143 10.4772 6.03172C10.4983 7.17871 10.7291 8.30604 11.4826 9.54712C11.6552 9.8314 11.6613 10.1991 11.5255 10.4994C11.3925 10.7935 11.1567 10.9623 10.8777 10.9623H3.11028C2.81675 10.9623 2.56899 10.7866 2.42648 10.4836C2.28107 10.1745 2.27904 9.7918 2.44981 9.48881C3.17763 8.19747 3.37085 7.03247 3.38591 5.84521Z" stroke="#6449FC"/>
    <path d="M12.251 1.01562L1.01652 12.1532" stroke="#6449FC" stroke-linecap="round"/>
</svg>
