<svg width="20" height="20" viewBox="0 0 20 20" fill="none" xmlns="http://www.w3.org/2000/svg">
<rect x="0.3" y="0.3" width="19.4" height="19.4" rx="5.7" fill="#FFC700" stroke="#FFC700" stroke-width="0.6"/>
<rect x="6.85882" y="5.85884" width="7.34118" height="8.92942" rx="0.3" stroke="#FFF7E3" stroke-width="0.6"/>
<rect x="5.5" y="4.5" width="7.94118" height="9.52942" rx="0.6" fill="white"/>
<path fill-rule="evenodd" clip-rule="evenodd" d="M8.73647 4.5C8.70333 4.5 8.67647 4.52686 8.67647 4.56V4.96941C8.67647 5.00255 8.70333 5.02941 8.73647 5.02941H9.20588V5.08941V5.49882V5.55884H8.73647C8.70333 5.55884 8.67647 5.5857 8.67647 5.61884V6.02825C8.67647 6.06139 8.70333 6.08825 8.73647 6.08825H9.20588V6.14825V6.55766V6.61766H8.73647C8.70333 6.61766 8.67647 6.64452 8.67647 6.67766V7.08707C8.67647 7.12021 8.70333 7.14707 8.73647 7.14707H9.20588V7.20707V7.61648V7.67648H8.73647C8.70333 7.67648 8.67647 7.70334 8.67647 7.73648V8.14589C8.67647 8.17903 8.70333 8.20589 8.73647 8.20589H9.20588V8.26589V8.6753V8.7353H8.73647C8.70333 8.7353 8.67647 8.76217 8.67647 8.7953V9.20472C8.67647 9.23785 8.70333 9.26472 8.73647 9.26472H9.20588V10.2635C9.20588 10.2967 9.23274 10.3235 9.26588 10.3235H9.67529C9.70843 10.3235 9.73529 10.2967 9.73529 10.2635V9.2052C9.73529 9.20504 9.73529 9.20488 9.73529 9.20472V8.7953C9.73529 8.79514 9.73529 8.79498 9.73529 8.79482V8.7353H10.2047C10.2378 8.7353 10.2647 8.70844 10.2647 8.6753V8.26589C10.2647 8.23276 10.2378 8.20589 10.2047 8.20589H9.73529V8.14638C9.73529 8.14622 9.73529 8.14605 9.73529 8.14589V7.73648C9.73529 7.73632 9.73529 7.73616 9.73529 7.736V7.67648H10.2047C10.2378 7.67648 10.2647 7.64962 10.2647 7.61648V7.20707C10.2647 7.17393 10.2378 7.14707 10.2047 7.14707H9.73529V7.08756C9.73529 7.0874 9.73529 7.08723 9.73529 7.08707V6.67766C9.73529 6.6775 9.73529 6.67734 9.73529 6.67718V6.61766H10.2047C10.2378 6.61766 10.2647 6.5908 10.2647 6.55766V6.14825C10.2647 6.11511 10.2378 6.08825 10.2047 6.08825H9.73529V6.02873C9.73529 6.02857 9.73529 6.02841 9.73529 6.02825V5.61884C9.73529 5.61868 9.73529 5.61852 9.73529 5.61835V5.55882H10.2047C10.2378 5.55882 10.2647 5.53196 10.2647 5.49882V5.08941C10.2647 5.05628 10.2378 5.02941 10.2047 5.02941H9.73529V4.96975C9.73529 4.96964 9.73529 4.96953 9.73529 4.96941V4.56C9.73529 4.52893 9.71168 4.50338 9.68143 4.50031C9.67941 4.5001 9.67736 4.5 9.67529 4.5C9.67529 4.5 9.67529 4.5 9.67529 4.5H9.26588H8.73647Z" fill="#FFC700"/>
<circle cx="9.47058" cy="11.1177" r="1.02353" stroke="#FFC700" stroke-width="0.6"/>
</svg>
